<mxfile host="app.diagrams.net" modified="2024-03-11T09:25:29.216Z" agent="Mozilla/5.0 (Windows NT 10.0; Win64; x64) AppleWebKit/537.36 (KHTML, like Gecko) Chrome/122.0.0.0 Safari/537.36" etag="p31dsLsrOtN-u_fWxhtu" version="24.0.1" type="device">
  <diagram name="Side-1" id="JuK31Gd6VYF-423m1zSu">
    <mxGraphModel dx="1909" dy="949" grid="1" gridSize="10" guides="1" tooltips="1" connect="1" arrows="1" fold="1" page="1" pageScale="1" pageWidth="827" pageHeight="1169" background="#FFFFFF" math="0" shadow="0">
      <root>
        <mxCell id="0" />
        <mxCell id="1" parent="0" />
        <mxCell id="3Qog16JgX0lO8ZcyqxPp-44" value="" style="rounded=0;whiteSpace=wrap;html=1;" vertex="1" parent="1">
          <mxGeometry x="20" y="20" width="790" height="960" as="geometry" />
        </mxCell>
        <mxCell id="3Qog16JgX0lO8ZcyqxPp-9" value="Books" style="swimlane;whiteSpace=wrap;html=1;" vertex="1" parent="1">
          <mxGeometry x="84" y="750" width="200" height="200" as="geometry" />
        </mxCell>
        <mxCell id="3Qog16JgX0lO8ZcyqxPp-10" value="id :1&lt;div&gt;ISBN:&lt;/div&gt;&lt;div&gt;&lt;div&gt;title:&amp;nbsp;&lt;/div&gt;&lt;div&gt;author&lt;/div&gt;&lt;div&gt;release_date&lt;/div&gt;&lt;div&gt;borrow_status: (none/user id)&lt;/div&gt;&lt;div&gt;time&lt;/div&gt;&lt;div&gt;&lt;br&gt;&lt;div&gt;&lt;br&gt;&lt;/div&gt;&lt;/div&gt;&lt;/div&gt;" style="text;html=1;align=left;verticalAlign=middle;whiteSpace=wrap;rounded=0;" vertex="1" parent="3Qog16JgX0lO8ZcyqxPp-9">
          <mxGeometry x="10" y="25" width="190" height="150" as="geometry" />
        </mxCell>
        <mxCell id="3Qog16JgX0lO8ZcyqxPp-11" value="User" style="swimlane;whiteSpace=wrap;html=1;" vertex="1" parent="1">
          <mxGeometry x="314" y="750" width="200" height="200" as="geometry" />
        </mxCell>
        <mxCell id="3Qog16JgX0lO8ZcyqxPp-12" value="&lt;div&gt;&lt;div&gt;id&lt;/div&gt;&lt;/div&gt;&lt;div&gt;uuid&lt;/div&gt;&lt;div&gt;name&lt;/div&gt;&lt;div&gt;address&lt;/div&gt;&lt;div&gt;email&lt;/div&gt;&lt;div&gt;borrowed_books [dict]/[list] of book ID&lt;/div&gt;&lt;div&gt;time&lt;/div&gt;&lt;div&gt;&lt;br&gt;&lt;/div&gt;" style="text;html=1;align=left;verticalAlign=middle;whiteSpace=wrap;rounded=0;" vertex="1" parent="3Qog16JgX0lO8ZcyqxPp-11">
          <mxGeometry x="10" y="25" width="190" height="150" as="geometry" />
        </mxCell>
        <mxCell id="3Qog16JgX0lO8ZcyqxPp-17" value="loggingdb" style="swimlane;whiteSpace=wrap;html=1;" vertex="1" parent="1">
          <mxGeometry x="544" y="750" width="200" height="200" as="geometry" />
        </mxCell>
        <mxCell id="3Qog16JgX0lO8ZcyqxPp-18" value="&lt;div&gt;&lt;div&gt;id&lt;/div&gt;&lt;/div&gt;&lt;div&gt;**kwargs&lt;/div&gt;&lt;div&gt;cls&lt;/div&gt;&lt;div&gt;book id&lt;/div&gt;&lt;div&gt;user id&lt;/div&gt;&lt;div&gt;time&lt;/div&gt;" style="text;html=1;align=left;verticalAlign=middle;whiteSpace=wrap;rounded=0;" vertex="1" parent="3Qog16JgX0lO8ZcyqxPp-17">
          <mxGeometry x="10" y="25" width="190" height="150" as="geometry" />
        </mxCell>
        <mxCell id="3Qog16JgX0lO8ZcyqxPp-20" value="" style="shape=cylinder3;whiteSpace=wrap;html=1;boundedLbl=1;backgroundOutline=1;size=15;" vertex="1" parent="1">
          <mxGeometry x="154" y="660" width="60" height="80" as="geometry" />
        </mxCell>
        <mxCell id="3Qog16JgX0lO8ZcyqxPp-21" value="" style="shape=cylinder3;whiteSpace=wrap;html=1;boundedLbl=1;backgroundOutline=1;size=15;" vertex="1" parent="1">
          <mxGeometry x="384" y="660" width="60" height="80" as="geometry" />
        </mxCell>
        <mxCell id="3Qog16JgX0lO8ZcyqxPp-22" value="" style="shape=cylinder3;whiteSpace=wrap;html=1;boundedLbl=1;backgroundOutline=1;size=15;" vertex="1" parent="1">
          <mxGeometry x="614" y="660" width="60" height="80" as="geometry" />
        </mxCell>
        <mxCell id="3Qog16JgX0lO8ZcyqxPp-23" value="singleton&lt;div&gt;sqlalchemy&lt;/div&gt;" style="rounded=0;whiteSpace=wrap;html=1;" vertex="1" parent="1">
          <mxGeometry x="354" y="570" width="120" height="60" as="geometry" />
        </mxCell>
        <mxCell id="3Qog16JgX0lO8ZcyqxPp-28" style="edgeStyle=orthogonalEdgeStyle;rounded=0;orthogonalLoop=1;jettySize=auto;html=1;exitX=0.5;exitY=1;exitDx=0;exitDy=0;entryX=0.5;entryY=0;entryDx=0;entryDy=0;" edge="1" parent="1" source="3Qog16JgX0lO8ZcyqxPp-25" target="3Qog16JgX0lO8ZcyqxPp-23">
          <mxGeometry relative="1" as="geometry" />
        </mxCell>
        <mxCell id="3Qog16JgX0lO8ZcyqxPp-25" value="database handler&lt;div&gt;&lt;br&gt;&lt;div&gt;reserve&lt;/div&gt;&lt;div&gt;borrow&lt;/div&gt;&lt;div&gt;return&lt;/div&gt;&lt;div&gt;lookup users&lt;/div&gt;&lt;div&gt;lookup books&lt;/div&gt;&lt;/div&gt;" style="rounded=0;whiteSpace=wrap;html=1;" vertex="1" parent="1">
          <mxGeometry x="354" y="430" width="120" height="110" as="geometry" />
        </mxCell>
        <mxCell id="3Qog16JgX0lO8ZcyqxPp-27" style="edgeStyle=orthogonalEdgeStyle;rounded=0;orthogonalLoop=1;jettySize=auto;html=1;exitX=0;exitY=0.5;exitDx=0;exitDy=0;entryX=1;entryY=0.5;entryDx=0;entryDy=0;" edge="1" parent="1" source="3Qog16JgX0lO8ZcyqxPp-26" target="3Qog16JgX0lO8ZcyqxPp-25">
          <mxGeometry relative="1" as="geometry" />
        </mxCell>
        <mxCell id="3Qog16JgX0lO8ZcyqxPp-26" value="decorater&lt;div&gt;&lt;br&gt;&lt;div&gt;logging&lt;/div&gt;&lt;/div&gt;" style="rounded=0;whiteSpace=wrap;html=1;" vertex="1" parent="1">
          <mxGeometry x="514" y="455" width="120" height="60" as="geometry" />
        </mxCell>
        <mxCell id="3Qog16JgX0lO8ZcyqxPp-29" style="edgeStyle=orthogonalEdgeStyle;rounded=0;orthogonalLoop=1;jettySize=auto;html=1;exitX=1;exitY=0.5;exitDx=0;exitDy=0;entryX=0.5;entryY=0;entryDx=0;entryDy=0;entryPerimeter=0;" edge="1" parent="1" source="3Qog16JgX0lO8ZcyqxPp-23" target="3Qog16JgX0lO8ZcyqxPp-22">
          <mxGeometry relative="1" as="geometry" />
        </mxCell>
        <mxCell id="3Qog16JgX0lO8ZcyqxPp-30" style="edgeStyle=orthogonalEdgeStyle;rounded=0;orthogonalLoop=1;jettySize=auto;html=1;exitX=0.5;exitY=1;exitDx=0;exitDy=0;entryX=0.5;entryY=0;entryDx=0;entryDy=0;entryPerimeter=0;" edge="1" parent="1" source="3Qog16JgX0lO8ZcyqxPp-23" target="3Qog16JgX0lO8ZcyqxPp-21">
          <mxGeometry relative="1" as="geometry" />
        </mxCell>
        <mxCell id="3Qog16JgX0lO8ZcyqxPp-31" style="edgeStyle=orthogonalEdgeStyle;rounded=0;orthogonalLoop=1;jettySize=auto;html=1;exitX=0;exitY=0.5;exitDx=0;exitDy=0;entryX=0.5;entryY=0;entryDx=0;entryDy=0;entryPerimeter=0;" edge="1" parent="1" source="3Qog16JgX0lO8ZcyqxPp-23" target="3Qog16JgX0lO8ZcyqxPp-20">
          <mxGeometry relative="1" as="geometry" />
        </mxCell>
        <mxCell id="3Qog16JgX0lO8ZcyqxPp-33" style="edgeStyle=orthogonalEdgeStyle;rounded=0;orthogonalLoop=1;jettySize=auto;html=1;exitX=1;exitY=0.5;exitDx=0;exitDy=0;entryX=0;entryY=0.5;entryDx=0;entryDy=0;" edge="1" parent="1" source="3Qog16JgX0lO8ZcyqxPp-32" target="3Qog16JgX0lO8ZcyqxPp-25">
          <mxGeometry relative="1" as="geometry" />
        </mxCell>
        <mxCell id="3Qog16JgX0lO8ZcyqxPp-36" style="edgeStyle=orthogonalEdgeStyle;rounded=0;orthogonalLoop=1;jettySize=auto;html=1;exitX=0.5;exitY=0;exitDx=0;exitDy=0;entryX=0.5;entryY=1;entryDx=0;entryDy=0;" edge="1" parent="1" source="3Qog16JgX0lO8ZcyqxPp-32" target="3Qog16JgX0lO8ZcyqxPp-34">
          <mxGeometry relative="1" as="geometry" />
        </mxCell>
        <mxCell id="3Qog16JgX0lO8ZcyqxPp-32" value="observe&lt;div&gt;&lt;br&gt;&lt;/div&gt;&lt;div&gt;return (duetime)&lt;/div&gt;&lt;div&gt;reserve notification&lt;/div&gt;" style="rounded=0;whiteSpace=wrap;html=1;" vertex="1" parent="1">
          <mxGeometry x="174" y="455" width="120" height="60" as="geometry" />
        </mxCell>
        <mxCell id="3Qog16JgX0lO8ZcyqxPp-40" style="edgeStyle=orthogonalEdgeStyle;rounded=0;orthogonalLoop=1;jettySize=auto;html=1;exitX=0.75;exitY=1;exitDx=0;exitDy=0;" edge="1" parent="1" source="3Qog16JgX0lO8ZcyqxPp-34" target="3Qog16JgX0lO8ZcyqxPp-25">
          <mxGeometry relative="1" as="geometry" />
        </mxCell>
        <mxCell id="3Qog16JgX0lO8ZcyqxPp-34" value="user" style="rounded=0;whiteSpace=wrap;html=1;" vertex="1" parent="1">
          <mxGeometry x="174" y="250" width="120" height="60" as="geometry" />
        </mxCell>
        <mxCell id="3Qog16JgX0lO8ZcyqxPp-41" style="edgeStyle=orthogonalEdgeStyle;rounded=0;orthogonalLoop=1;jettySize=auto;html=1;exitX=0.5;exitY=1;exitDx=0;exitDy=0;" edge="1" parent="1" source="3Qog16JgX0lO8ZcyqxPp-35" target="3Qog16JgX0lO8ZcyqxPp-25">
          <mxGeometry relative="1" as="geometry" />
        </mxCell>
        <mxCell id="3Qog16JgX0lO8ZcyqxPp-35" value="operator" style="rounded=0;whiteSpace=wrap;html=1;" vertex="1" parent="1">
          <mxGeometry x="324" y="250" width="120" height="60" as="geometry" />
        </mxCell>
        <mxCell id="3Qog16JgX0lO8ZcyqxPp-42" value="tests" style="rounded=0;whiteSpace=wrap;html=1;" vertex="1" parent="1">
          <mxGeometry x="514" y="330" width="120" height="60" as="geometry" />
        </mxCell>
        <mxCell id="3Qog16JgX0lO8ZcyqxPp-43" value="WEBSITE GUI???" style="rounded=0;whiteSpace=wrap;html=1;" vertex="1" parent="1">
          <mxGeometry x="209" y="40" width="410" height="160" as="geometry" />
        </mxCell>
      </root>
    </mxGraphModel>
  </diagram>
</mxfile>
